<?xml version="1.0" encoding="utf-8"?>
<!-- Generator: Adobe Illustrator 24.2.1, SVG Export Plug-In . SVG Version: 6.00 Build 0)  -->
<svg version="1.1" id="object" xmlns="http://www.w3.org/2000/svg" xmlns:xlink="http://www.w3.org/1999/xlink" x="0px" y="0px"
	 viewBox="0 0 1200 1000" style="enable-background:new 0 0 1200 1000;" xml:space="preserve">
<style type="text/css">
	.st0{fill:url(#SVGID_1_);}
	.st1{fill:url(#SVGID_2_);}
	.st2{fill:url(#SVGID_3_);}
	.st3{fill:url(#SVGID_4_);}
	.st4{fill:url(#SVGID_5_);}
	.st5{fill:url(#SVGID_6_);}
	.st6{fill:url(#SVGID_7_);}
	.st7{fill:url(#SVGID_8_);}
	.st8{fill:url(#SVGID_9_);}
	.st9{fill:url(#SVGID_10_);}
	.st10{fill:url(#SVGID_11_);}
	.st11{fill:url(#SVGID_12_);}
	.st12{fill:url(#SVGID_13_);}
	.st13{fill:url(#SVGID_14_);}
	.st14{fill:url(#SVGID_15_);}
	.st15{fill:url(#SVGID_16_);}
	.st16{fill:url(#SVGID_17_);}
	.st17{fill:url(#SVGID_18_);}
	.st18{fill:url(#SVGID_19_);}
	.st19{fill:url(#SVGID_20_);}
	.st20{fill:url(#SVGID_21_);}
</style>
<g>
	<g>
		<g>
			<linearGradient id="SVGID_1_" gradientUnits="userSpaceOnUse" x1="373.1219" y1="499.9996" x2="826.879" y2="499.9996">
				<stop  offset="0" style="stop-color:#00BEA4"/>
				<stop  offset="0.9966" style="stop-color:#FFFFFF"/>
			</linearGradient>
			<path class="st0" d="M641.31,690.72c-52.14,0-107.85-15.51-156.94-47.12c-59.88-38.56-99.65-94.26-109.1-152.81
				c-7.02-43.43,3.25-83.72,29.67-116.5c63.77-79.11,203.14-87.13,310.69-17.88c59.88,38.56,99.65,94.26,109.11,152.81
				c7.01,43.43-3.25,83.72-29.67,116.5C760.4,668.72,703.39,690.72,641.31,690.72z M558.66,310.98
				c-61.56,0-118.04,21.78-152.38,64.38c-26.11,32.39-36.25,72.21-29.31,115.15c9.38,58.07,48.87,113.34,108.34,151.64
				c106.83,68.79,245.18,60.93,308.42-17.51c26.11-32.4,36.25-72.21,29.31-115.15c-9.38-58.07-48.87-113.34-108.34-151.64
				C665.88,326.42,610.47,310.98,558.66,310.98z"/>
		</g>
	</g>
	<g>
		<g>
			<linearGradient id="SVGID_2_" gradientUnits="userSpaceOnUse" x1="367.9048" y1="500.0003" x2="832.0961" y2="500.0003">
				<stop  offset="0" style="stop-color:#00BEA4"/>
				<stop  offset="0.9966" style="stop-color:#FFFFFF"/>
			</linearGradient>
			<path class="st1" d="M624.13,700.33c-36.32,0-74.07-7.45-110.28-23.18c-63.92-27.76-112.91-77.04-134.41-135.19
				c-16.96-45.88-15.17-94.04,5.05-135.6c47.51-97.65,182.83-135.12,301.65-83.51c63.92,27.76,112.92,77.04,134.42,135.19
				c16.96,45.88,15.17,94.04-5.05,135.6C782.48,661.53,707,700.33,624.13,700.33z M385.3,406.76l0.81,0.39
				c-20,41.11-21.77,88.77-4.98,134.19c21.33,57.7,69.97,106.6,133.45,134.16c117.95,51.23,252.23,14.15,299.32-82.65
				c20-41.11,21.77-88.77,4.98-134.19c-21.33-57.7-69.97-106.6-133.45-134.16c-117.95-51.22-252.23-14.15-299.32,82.65L385.3,406.76
				z"/>
		</g>
	</g>
	<g>
		<g>
			<linearGradient id="SVGID_3_" gradientUnits="userSpaceOnUse" x1="364.9639" y1="499.9994" x2="835.0363" y2="499.9994">
				<stop  offset="0" style="stop-color:#00BEA4"/>
				<stop  offset="0.9966" style="stop-color:#FFFFFF"/>
			</linearGradient>
			<path class="st2" d="M610.03,714.1c-19.98,0-40.38-2.34-60.81-7.26c-64.83-15.59-120.82-55.42-153.63-109.29
				c-28.75-47.2-37.64-101.45-25.05-152.74l0.91,0.22l-0.91-0.22c28-114.05,153.72-182.08,280.24-151.66
				c64.83,15.59,120.82,55.42,153.63,109.29c28.75,47.2,37.64,101.45,25.05,152.74C805.98,650.81,713.78,714.09,610.03,714.1z
				 M589.97,287.77c-102.92,0-194.33,62.7-217.61,157.49c-12.47,50.8-3.66,104.54,24.83,151.32
				c32.55,53.44,88.12,92.97,152.47,108.44c125.51,30.18,250.23-37.23,277.99-150.28c12.47-50.8,3.66-104.54-24.83-151.32
				c-32.55-53.44-88.12-92.97-152.47-108.44C630.07,290.1,609.8,287.77,589.97,287.77z"/>
		</g>
	</g>
	<g>
		<g>
			<linearGradient id="SVGID_4_" gradientUnits="userSpaceOnUse" x1="363.9564" y1="500.0004" x2="836.0447" y2="500.0004">
				<stop  offset="0" style="stop-color:#00BEA4"/>
				<stop  offset="0.9966" style="stop-color:#FFFFFF"/>
			</linearGradient>
			<path class="st3" d="M601.44,731.47c-3.93,0-7.87-0.09-11.82-0.28c-130.03-6.22-231.15-115-225.42-242.47
				c2.74-60.88,29.25-117.21,74.67-158.6c46.73-42.59,107.66-64.35,171.53-61.3c130.03,6.22,231.15,115,225.42,242.47
				c-2.73,60.88-29.25,117.21-74.67,158.6C717.3,709.83,660.97,731.47,601.44,731.47z M598.57,270.48
				c-59.05,0-114.91,21.45-158.39,61.08c-45.03,41.04-71.33,96.88-74.04,157.24c-5.68,126.4,94.61,234.26,223.57,240.43
				c63.35,3.02,123.77-18.56,170.12-60.79c45.03-41.04,71.33-96.88,74.04-157.25c5.68-126.4-94.61-234.26-223.57-240.43
				C606.37,270.58,602.46,270.48,598.57,270.48z"/>
		</g>
	</g>
	<g>
		<g>
			<linearGradient id="SVGID_5_" gradientUnits="userSpaceOnUse" x1="363.8569" y1="500.0001" x2="836.1447" y2="500.0001">
				<stop  offset="0" style="stop-color:#00BEA4"/>
				<stop  offset="0.9966" style="stop-color:#FFFFFF"/>
			</linearGradient>
			<path class="st4" d="M599.03,751.53c-47.94,0-94.71-15.53-134.54-45.15c-53.86-40.05-88.72-100.26-98.16-169.53
				c-18.7-137.17,70.91-265.3,199.74-285.63c59.8-9.44,119.99,5.62,169.45,42.4c53.86,40.05,88.72,100.26,98.16,169.53
				c18.7,137.17-70.91,265.3-199.74,285.63C622.28,750.62,610.62,751.53,599.03,751.53z M600.97,250.51
				c-11.49,0-23.04,0.9-34.58,2.72c-127.75,20.16-216.59,147.27-198.04,283.35c9.37,68.73,43.94,128.45,97.36,168.17
				c49.02,36.45,108.65,51.38,167.92,42.03c127.75-20.16,216.59-147.27,198.04-283.35c-9.37-68.73-43.95-128.45-97.36-168.17
				C694.83,265.9,648.47,250.51,600.97,250.51z"/>
		</g>
	</g>
	<g>
		<g>
			<linearGradient id="SVGID_6_" gradientUnits="userSpaceOnUse" x1="363.3821" y1="499.9997" x2="836.6185" y2="499.9997">
				<stop  offset="0" style="stop-color:#00BEA4"/>
				<stop  offset="0.9966" style="stop-color:#FFFFFF"/>
			</linearGradient>
			<path class="st5" d="M604.91,772.9c-31.03,0-62.13-7.05-91.49-21.09c-63.16-30.19-112.67-89.99-135.81-164.06
				c-44.51-142.43,19-297.69,141.58-346.1c54.28-21.43,113.73-19.11,167.41,6.55c63.16,30.19,112.67,89.99,135.81,164.06
				c44.51,142.43-19,297.69-141.58,346.1C656.24,768.06,630.6,772.9,604.91,772.9z M595.09,229.23c-25.43,0-50.8,4.78-75.13,14.39
				c-121.57,48.01-184.52,202.1-140.33,343.49c22.97,73.51,72.07,132.84,134.7,162.78c53.14,25.4,111.99,27.71,165.71,6.49
				c121.57-48.01,184.52-202.1,140.34-343.49c-22.97-73.51-72.07-132.84-134.7-162.78C656.6,236.21,625.81,229.23,595.09,229.23z"/>
		</g>
	</g>
	<g>
		<g>
			<linearGradient id="SVGID_7_" gradientUnits="userSpaceOnUse" x1="360.9433" y1="500.0001" x2="839.0573" y2="500.0001">
				<stop  offset="0" style="stop-color:#00BEA4"/>
				<stop  offset="0.9966" style="stop-color:#FFFFFF"/>
			</linearGradient>
			<path class="st6" d="M617.34,794.21c-16.45,0-33.07-2.1-49.6-6.35c-69.8-17.95-131.54-71.95-169.38-148.16
				C327.52,497,360.24,318.22,471.31,241.16c47.74-33.12,104.9-43.43,160.94-29.02c69.8,17.95,131.54,71.95,169.38,148.17
				c70.85,142.69,38.13,321.47-72.94,398.53C695.03,782.19,656.68,794.21,617.34,794.21z M400.35,638.71
				c37.55,75.63,98.77,129.22,167.95,147.01c55.42,14.25,111.93,4.06,159.14-28.69c110.2-76.45,142.6-253.98,72.22-395.73
				c-37.55-75.63-98.77-129.22-167.95-147.01c-55.41-14.25-111.93-4.06-159.13,28.69C362.37,319.43,329.97,496.96,400.35,638.71z"/>
		</g>
	</g>
	<g>
		<g>
			<linearGradient id="SVGID_8_" gradientUnits="userSpaceOnUse" x1="354.7818" y1="500.0001" x2="845.2195" y2="500.0001">
				<stop  offset="0" style="stop-color:#00BEA4"/>
				<stop  offset="0.9966" style="stop-color:#FFFFFF"/>
			</linearGradient>
			<path class="st7" d="M635.5,814.18c-3.67,0-7.36-0.11-11.07-0.33c-72.4-4.26-143.75-49.11-195.77-123.05
				c-96.74-137.52-98.74-335-4.45-440.21c40.26-44.93,94.01-67.81,151.35-64.43c72.39,4.26,143.75,49.11,195.77,123.05
				c96.74,137.52,98.74,335,4.45,440.21C738.12,791.44,688.66,814.18,635.5,814.18z M564.51,188.13
				c-52.5,0-101.36,22.47-138.58,63.99c-93.62,104.47-91.55,300.66,4.62,437.35c51.61,73.36,122.33,117.86,194.02,122.08
				c56.61,3.33,109.72-19.28,149.5-63.67c93.62-104.46,91.55-300.66-4.62-437.35c-51.61-73.36-122.32-117.86-194.01-122.08
				C571.78,188.24,568.14,188.13,564.51,188.13z"/>
		</g>
	</g>
	<g>
		<g>
			<linearGradient id="SVGID_9_" gradientUnits="userSpaceOnUse" x1="343.5577" y1="500" x2="856.4427" y2="500">
				<stop  offset="0" style="stop-color:#00BEA4"/>
				<stop  offset="0.9966" style="stop-color:#FFFFFF"/>
			</linearGradient>
			<path class="st8" d="M657.45,831.65c-64.36,0-132.13-32.86-189.3-92.61C346.97,612.41,307.33,402.18,379.79,270.4
				c31.45-57.2,80.76-92.89,138.85-100.5c71.19-9.33,148.9,23.86,213.21,91.06c121.18,126.63,160.81,336.87,88.36,468.64
				c-31.45,57.2-80.76,92.89-138.85,100.5C673.46,831.14,665.48,831.65,657.45,831.65z M542.56,170.75c-7.93,0-15.8,0.5-23.6,1.53
				c-57.31,7.51-105.98,42.77-137.06,99.28c-71.99,130.92-32.52,339.89,87.99,465.82c63.77,66.64,140.74,99.57,211.16,90.34
				c57.31-7.51,105.99-42.77,137.06-99.28c71.99-130.92,32.52-339.89-87.99-465.82C673.4,203.36,606.26,170.75,542.56,170.75z"/>
		</g>
	</g>
	<g>
		<g>
			<linearGradient id="SVGID_10_" gradientUnits="userSpaceOnUse" x1="326.884" y1="500.0005" x2="873.1165" y2="500.0005">
				<stop  offset="0" style="stop-color:#00BEA4"/>
				<stop  offset="0.9966" style="stop-color:#FFFFFF"/>
			</linearGradient>
			<path class="st9" d="M681.69,845.77c-53.5,0-111.42-21.82-165.57-63.44C373.02,672.36,294,456.32,339.97,300.74
				c20.67-69.95,64.21-118.93,122.62-137.9c66.98-21.76,147.64-1.77,221.3,54.84C826.98,327.64,906,543.68,860.03,699.27
				c-20.67,69.95-64.21,118.93-122.61,137.9C719.67,842.93,700.96,845.77,681.69,845.77z M518.32,156.74
				c-19.02,0-37.47,2.79-54.96,8.48c-57.59,18.71-100.56,67.09-120.99,136.23c-45.7,154.67,32.93,369.51,175.27,478.9
				c73,56.1,152.82,75.94,219,54.44c57.59-18.71,100.56-67.09,120.98-136.23c45.7-154.67-32.92-369.51-175.27-478.9
				C628.66,178.39,571.26,156.74,518.32,156.74z"/>
		</g>
	</g>
	<g>
		<g>
			<linearGradient id="SVGID_11_" gradientUnits="userSpaceOnUse" x1="305.3238" y1="500.0004" x2="894.6762" y2="500.0004">
				<stop  offset="0" style="stop-color:#00BEA4"/>
				<stop  offset="0.9966" style="stop-color:#FFFFFF"/>
			</linearGradient>
			<path class="st10" d="M705.3,856.38c-42.02,0-87.54-12.67-133.84-37.81c-161.44-87.65-280.22-301.74-264.79-477.24
				c7.27-82.74,43.22-145.46,101.22-176.6c61.56-33.06,139.92-27.13,220.64,16.7c161.44,87.65,280.22,301.74,264.79,477.24
				c-7.28,82.74-43.22,145.46-101.22,176.6C765.85,849.37,736.54,856.38,705.3,856.38z M494.71,146.24
				c-30.83,0-59.71,6.9-85.58,20.79c-57.2,30.72-92.66,92.7-99.86,174.53C293.92,516.12,412.1,729.07,572.71,816.27
				c79.93,43.4,157.41,49.33,218.16,16.7c57.2-30.72,92.66-92.7,99.86-174.53c15.35-174.56-102.82-387.51-263.43-474.71
				C581.39,158.81,536.29,146.24,494.71,146.24z"/>
		</g>
	</g>
	<g>
		<g>
			<linearGradient id="SVGID_12_" gradientUnits="userSpaceOnUse" x1="279.9465" y1="499.9998" x2="920.0546" y2="499.9998">
				<stop  offset="0" style="stop-color:#00BEA4"/>
				<stop  offset="0.9966" style="stop-color:#FFFFFF"/>
			</linearGradient>
			<path class="st11" d="M727.22,862.69c-29.7,0-61.48-5.61-94.5-16.93c-175.21-60.04-332.66-263.81-350.99-454.24
				c-9.11-94.61,16.89-171.19,73.19-215.65c53.77-42.45,129.18-50.14,212.35-21.63c175.2,60.04,332.66,263.81,351,454.24
				c9.11,94.61-16.89,171.19-73.19,215.65C812.65,849.73,772.34,862.68,727.22,862.69z M472.79,140.04
				c-44.53,0-84.24,12.76-116.18,37.97c-55.56,43.86-81.19,119.6-72.17,213.25c18.24,189.46,174.87,392.19,349.16,451.92
				c82.26,28.19,156.76,20.66,209.78-21.19c55.56-43.86,81.19-119.6,72.17-213.25c-18.24-189.46-174.88-392.19-349.16-451.92
				C533.68,145.61,502.19,140.04,472.79,140.04z"/>
		</g>
	</g>
	<g>
		<g>
			<linearGradient id="SVGID_13_" gradientUnits="userSpaceOnUse" x1="252.5572" y1="500.0003" x2="947.4429" y2="500.0003">
				<stop  offset="0" style="stop-color:#00BEA4"/>
				<stop  offset="0.9966" style="stop-color:#FFFFFF"/>
			</linearGradient>
			<path class="st12" d="M743.23,865.58c-14.57,0-29.64-1.16-45.16-3.51C514.6,834.34,321.14,649.58,266.81,450.22
				c-27.99-102.73-14.37-194.99,37.39-253.13c45.06-50.62,115.29-71.63,197.73-59.17c183.47,27.73,376.93,212.49,431.26,411.85
				c27.99,102.73,14.37,194.99-37.38,253.13C859.22,844,806.06,865.58,743.23,865.58z M456.79,137.26
				c-62.01,0-114.44,21.25-150.46,61.72c-51.1,57.4-64.5,148.7-36.77,250.49c54.06,198.38,246.48,382.21,428.94,409.79
				c81.47,12.31,150.78-8.37,195.18-58.25c51.1-57.4,64.5-148.7,36.76-250.49c-54.06-198.38-246.48-382.21-428.94-409.79
				C486.14,138.41,471.2,137.26,456.79,137.26z"/>
		</g>
	</g>
	<g>
		<g>
			<linearGradient id="SVGID_14_" gradientUnits="userSpaceOnUse" x1="224.6298" y1="499.9999" x2="975.3707" y2="499.9999">
				<stop  offset="0" style="stop-color:#00BEA4"/>
				<stop  offset="0.9966" style="stop-color:#FFFFFF"/>
			</linearGradient>
			<path class="st13" d="M750.93,866.25c-182.53,0-398.55-154.08-487.56-350.33c-49.21-108.49-51.64-212.82-6.66-286.22
				c35.56-58.05,98.76-92,177.94-95.62c185.39-8.47,410.63,148.55,502,350.01c49.21,108.49,51.64,212.82,6.67,286.22
				c-35.56,58.05-98.76,92-177.94,95.62C760.58,866.14,755.76,866.25,750.93,866.25z M765.23,862.97l0.07,1.48L765.23,862.97
				c78.17-3.57,140.51-37.03,175.55-94.21c44.45-72.55,41.96-175.87-6.84-283.45c-90.92-200.45-314.8-356.69-499.17-348.27
				c-78.17,3.57-140.51,37.02-175.55,94.21c-44.45,72.55-41.96,175.87,6.84,283.45C356.98,715.15,580.91,871.39,765.23,862.97z"/>
		</g>
	</g>
	<g>
		<g>
			<linearGradient id="SVGID_15_" gradientUnits="userSpaceOnUse" x1="198.1333" y1="499.9994" x2="1001.8677" y2="499.9994">
				<stop  offset="0" style="stop-color:#00BEA4"/>
				<stop  offset="0.9966" style="stop-color:#FFFFFF"/>
			</linearGradient>
			<path class="st14" d="M748.59,866.4c-168.07,0-366.79-112.48-476.09-279.69c-71.29-109.05-92.58-222.53-58.42-311.35
				c25.47-66.21,78.63-111.66,153.73-131.43c180.46-47.51,431.54,73.33,559.69,269.35c71.29,109.05,92.58,222.53,58.42,311.35
				c-25.47,66.21-78.63,111.66-153.73,131.43C805.66,863.05,777.57,866.4,748.59,866.4z M451.54,136.67
				c-28.76,0-56.61,3.32-82.95,10.25c-74.1,19.51-126.53,64.3-151.63,129.55c-33.8,87.88-12.62,200.35,58.12,308.55
				c127.48,195,377.04,315.25,556.32,268.06c74.1-19.51,126.53-64.3,151.63-129.55c33.8-87.88,12.62-200.34-58.12-308.55
				C816.17,248.62,618.56,136.67,451.54,136.67z"/>
		</g>
	</g>
	<g>
		<g>
			<linearGradient id="SVGID_16_" gradientUnits="userSpaceOnUse" x1="174.6928" y1="500.0001" x2="1025.3076" y2="500.0001">
				<stop  offset="0" style="stop-color:#00BEA4"/>
				<stop  offset="0.9966" style="stop-color:#FFFFFF"/>
			</linearGradient>
			<path class="st15" d="M734.58,868.21c-150.05,0-322.3-76.62-439.61-207.86c-92.34-103.3-134.6-221.56-115.96-324.45
				c13.37-73.75,56.6-131.69,125.04-167.57C472.2,80.18,741.8,157.03,905.03,339.65c92.34,103.3,134.6,221.56,115.96,324.45
				c-13.36,73.75-56.6,131.69-125.04,167.57l-0.75-1.43l0.75,1.43C848.64,856.47,793.31,868.21,734.58,868.21z M465.53,134.96
				c-58.25,0-113.08,11.63-159.98,36.22c-67.53,35.4-110.19,92.56-123.37,165.3C163.71,438.38,205.7,555.65,297.37,658.2
				c116.71,130.57,288.02,206.83,437.1,206.84c58.25,0,113.08-11.63,159.98-36.22c67.53-35.4,110.19-92.56,123.37-165.29
				c18.47-101.91-23.52-219.18-115.19-321.73C785.92,211.23,614.61,134.96,465.53,134.96z"/>
		</g>
	</g>
	<g>
		<g>
			<linearGradient id="SVGID_17_" gradientUnits="userSpaceOnUse" x1="155.3463" y1="500" x2="1044.6548" y2="500">
				<stop  offset="0" style="stop-color:#00BEA4"/>
				<stop  offset="0.9966" style="stop-color:#FFFFFF"/>
			</linearGradient>
			<path class="st16" d="M708.5,874.37c-126.49,0-265.76-47.96-377.42-140.12c-110.19-90.94-174.24-208.18-175.7-321.67
				c-1.06-81.57,30.32-152.45,90.74-205C394.4,78.62,673.79,104.71,868.93,265.75c110.19,90.94,174.24,208.19,175.7,321.67
				c1.05,81.56-30.32,152.45-90.74,205C890.46,847.58,803.05,874.37,708.5,874.37z M491.51,128.93
				c-93.74,0-180.35,26.54-243.19,81.19c-59.65,51.88-90.63,121.88-89.59,202.42c1.45,112.5,65.05,228.81,174.48,319.13
				c193.92,160.04,471.37,186.16,618.48,58.22l1.1,1.27l-1.1-1.27c59.65-51.88,90.63-121.88,89.59-202.42
				c-1.45-112.5-65.05-228.81-174.48-319.13C755.71,176.66,617.2,128.93,491.51,128.93z"/>
		</g>
	</g>
	<g>
		<g>
			<linearGradient id="SVGID_18_" gradientUnits="userSpaceOnUse" x1="140.8513" y1="499.9998" x2="1059.1487" y2="499.9998">
				<stop  offset="0" style="stop-color:#00BEA4"/>
				<stop  offset="0.9966" style="stop-color:#FFFFFF"/>
			</linearGradient>
			<path class="st17" d="M674.58,887.44c-97.42,0-200.69-26.7-293.95-81.81c-122.97-72.67-207.74-182.18-232.58-300.45
				c-18.44-87.78-1.15-174.32,48.68-243.68C317.71,93.09,597.03,62.97,819.38,194.37c122.97,72.67,207.74,182.18,232.58,300.45
				c18.44,87.78,1.15,174.32-48.68,243.68l-1.42-1.02l1.42,1.02C933.04,836.28,809.42,887.44,674.58,887.44z M525.36,116.03
				c-133.72,0-256.21,50.65-325.8,147.51c-49.96,69.54-66.59,152.85-48.09,240.92c24.64,117.31,108.81,225.99,230.94,298.15
				c92.73,54.8,195.44,81.35,292.24,81.36c133.72,0.01,256.21-50.65,325.79-147.51c49.96-69.54,66.59-152.85,48.09-240.92
				c-24.64-117.31-108.81-225.99-230.94-298.16C724.86,142.59,622.16,116.03,525.36,116.03z"/>
		</g>
	</g>
	<g>
		<g>
			<linearGradient id="SVGID_19_" gradientUnits="userSpaceOnUse" x1="131.3938" y1="499.9997" x2="1068.6071" y2="499.9997">
				<stop  offset="0" style="stop-color:#00BEA4"/>
				<stop  offset="0.9966" style="stop-color:#FFFFFF"/>
			</linearGradient>
			<path class="st18" d="M640.87,908.83c-65.12,0-132.45-11.99-197.97-37.32C313.34,821.41,210.95,726.4,161.97,610.82
				c-39.55-93.33-40.77-193.33-3.44-281.58C245.17,124.44,513.68,34.38,757.1,128.49c129.56,50.09,231.95,145.11,280.93,260.68
				c39.55,93.33,40.77,193.33,3.44,281.58C978.15,820.44,817.68,908.83,640.87,908.83z M559.08,94.81
				c-175.37,0-334.45,87.55-397.19,235.86c-36.94,87.33-35.72,186.32,3.44,278.73c48.59,114.67,150.24,208.96,278.89,258.7
				c241.59,93.41,508.01,4.24,593.89-198.77c36.94-87.33,35.72-186.32-3.44-278.74c-48.59-114.67-150.24-208.96-278.89-258.7
				C690.68,106.72,623.77,94.81,559.08,94.81z"/>
		</g>
	</g>
	<g>
		<g>
			<linearGradient id="SVGID_20_" gradientUnits="userSpaceOnUse" x1="126.4532" y1="500.0002" x2="1073.4692" y2="500.0002">
				<stop  offset="0" style="stop-color:#00BEA4"/>
				<stop  offset="0.9966" style="stop-color:#FFFFFF"/>
			</linearGradient>
			<path class="st19" d="M614.85,938.4c-32.31,0-65.16-3.08-98.22-9.51c-124.45-24.19-232.79-91.53-305.06-189.61
				C139.26,641.15,111.7,524,133.98,409.41C179.95,172.92,426.4,21.16,683.37,71.11c256.97,49.95,428.62,282.98,382.66,519.47
				l-1.87-0.36l1.87,0.36C1025.97,796.65,833.66,938.4,614.85,938.4z M585.15,65.4c-217.05,0-407.73,140.47-447.44,344.74
				c-22.07,113.53,5.25,229.62,76.92,326.89c71.71,97.31,179.22,164.12,302.73,188.13c32.8,6.37,65.45,9.44,97.5,9.44
				c217.05,0.01,407.73-140.47,447.44-344.74c45.57-234.43-124.74-465.47-379.65-515.02C649.85,68.47,617.2,65.4,585.15,65.4z"/>
		</g>
	</g>
	<g>
		<g>
			<linearGradient id="SVGID_21_" gradientUnits="userSpaceOnUse" x1="125.1742" y1="500" x2="1074.8258" y2="500">
				<stop  offset="0" style="stop-color:#00BEA4"/>
				<stop  offset="0.9966" style="stop-color:#FFFFFF"/>
			</linearGradient>
			<path class="st20" d="M600,974.83c-261.82,0-474.83-213.01-474.83-474.83S338.18,25.17,600,25.17
				c261.82,0,474.83,213.01,474.83,474.83S861.82,974.83,600,974.83z M600,29.14c-259.63,0-470.86,211.23-470.86,470.86
				S340.37,970.86,600,970.86S1070.86,759.63,1070.86,500S859.63,29.14,600,29.14z"/>
		</g>
	</g>
</g>
</svg>
