<svg width="500" height="500" viewBox="0 0 500 500" fill="none" xmlns="http://www.w3.org/2000/svg">
<rect width="500" height="500" fill="#131715"/>
<path fill-rule="evenodd" clip-rule="evenodd" d="M187.747 173.006C187.747 142.251 218.327 116.747 250.473 116.747C282.62 116.747 313.2 142.251 313.2 173.006C313.2 201.423 298.786 214.764 279.405 231.952L278.604 232.662C259.391 249.692 235.6 270.781 235.6 312.686C235.6 320.901 242.259 327.559 250.473 327.559C258.688 327.559 265.347 320.901 265.347 312.686C265.347 284.625 279.687 271.461 299.142 254.208L299.68 253.73C319.008 236.594 342.945 215.369 342.945 173.006C342.945 121.986 294.929 87 250.473 87C206.018 87 158 121.986 158 173.006C158 181.221 164.659 187.88 172.873 187.88C181.088 187.88 187.747 181.221 187.747 173.006ZM250.473 412.467C262.973 412.467 273.107 402.332 273.107 389.833C273.107 377.332 262.973 367.2 250.473 367.2C237.973 367.2 227.84 377.332 227.84 389.833C227.84 402.332 237.973 412.467 250.473 412.467Z" fill="#00BEA4"/>
</svg>
